<?xml version="1.0" encoding="UTF-8" standalone="no"?>
<svg width="297.011mm" height="209.973mm"
 viewBox="0 0 3508 2480"
 xmlns="http://www.w3.org/2000/svg" xmlns:xlink="http://www.w3.org/1999/xlink"  version="1.2" baseProfile="tiny">
<defs>
</defs>
<g fill="none" stroke="black" stroke-width="1" fill-rule="evenodd" stroke-linecap="square" stroke-linejoin="bevel" >

<g fill="#ffffff" fill-opacity="1" stroke="none" transform="matrix(1,0,0,1,0,0)"
font-family="Arial" font-size="12" font-weight="400" font-style="normal" 
>
<rect x="0" y="0" width="3508" height="2480"/>
</g>

<g fill="none" stroke="#000000" stroke-opacity="1" stroke-width="1" stroke-linecap="square" stroke-linejoin="bevel" transform="matrix(1,0,0,1,0,0)"
font-family="Arial" font-size="12" font-weight="400" font-style="normal" 
>
</g>

<g fill="#000000" fill-opacity="1" stroke="#000000" stroke-opacity="1" stroke-width="1" stroke-linecap="butt" stroke-linejoin="miter" stroke-miterlimit="2" transform="matrix(1,0,0,1,0,0)"
font-family="Arial" font-size="12" font-weight="400" font-style="normal" 
>
</g>

<g fill="#000000" fill-opacity="1" stroke="#000000" stroke-opacity="1" stroke-width="5" stroke-linecap="round" stroke-linejoin="bevel" transform="matrix(1,0,0,1,0,0)"
font-family="Arial" font-size="12" font-weight="400" font-style="normal" 
>
<polyline fill="none" vector-effect="none" points="850.638,574.108 850.478,567.182 849.998,560.27 849.199,553.388 848.084,546.549 846.654,539.77 844.912,533.064 842.863,526.446 840.51,519.929 837.858,513.528 834.914,507.256 831.683,501.127 828.173,495.154 824.391,489.349 820.344,483.725 816.042,478.294 811.494,473.067 806.709,468.056 801.698,463.271 796.472,458.723 791.04,454.421 785.416,450.375 779.611,446.592 773.638,443.082 767.509,439.851 761.237,436.907 754.836,434.255 748.319,431.902 741.701,429.853 734.995,428.111 728.216,426.681 721.378,425.566 714.495,424.767 707.583,424.287 700.657,424.127 " />
<polyline fill="none" vector-effect="none" points="1000.62,574.108 1000.45,564.085 999.949,554.073 999.112,544.084 997.942,534.127 996.44,524.216 994.608,514.36 992.447,504.571 989.961,494.86 987.151,485.237 984.021,475.713 980.575,466.3 976.817,457.007 972.749,447.844 968.378,438.823 963.708,429.952 958.744,421.243 953.492,412.704 947.958,404.346 942.147,396.177 936.067,388.207 929.723,380.445 923.124,372.899 916.276,365.577 909.188,358.489 901.867,351.641 894.32,345.042 886.558,338.698 878.588,332.618 870.419,326.807 862.061,321.273 853.522,316.021 844.813,311.057 835.943,306.387 826.921,302.016 817.759,297.949 808.465,294.19 799.052,290.744 789.528,287.614 779.905,284.804 770.194,282.318 760.405,280.157 750.549,278.325 740.638,276.823 730.682,275.653 720.692,274.816 710.68,274.314 700.657,274.147 " />
<polyline fill="none" vector-effect="none" points="850.638,574.108 1000.62,574.108 " />
<polyline fill="none" vector-effect="none" points="1075.61,574.108 1075.44,562.892 1074.94,551.685 1074.1,540.498 1072.93,529.341 1071.42,518.225 1069.58,507.158 1067.42,496.151 1064.92,485.215 1062.1,474.357 1058.95,463.589 1055.48,452.92 1051.7,442.36 1047.6,431.917 1043.19,421.602 1038.48,411.423 1033.46,401.389 1028.14,391.511 1022.53,381.796 1016.64,372.253 1010.46,362.89 1004,353.717 997.271,344.741 990.276,335.97 983.023,327.413 975.516,319.076 967.764,310.968 959.772,303.095 951.549,295.464 943.101,288.084 934.436,280.959 925.561,274.096 916.486,267.503 907.217,261.183 897.763,255.144 888.133,249.39 878.335,243.927 868.378,238.759 858.271,233.892 848.022,229.329 837.642,225.075 827.139,221.133 816.523,217.508 805.804,214.201 794.99,211.216 784.091,208.557 773.118,206.224 762.081,204.221 750.988,202.549 739.85,201.21 728.677,200.204 717.479,199.534 706.266,199.198 695.048,199.198 683.835,199.534 672.636,200.204 661.464,201.21 650.326,202.549 639.233,204.221 628.195,206.224 617.222,208.557 606.324,211.216 595.51,214.201 584.79,217.508 574.174,221.133 563.671,225.075 553.291,229.329 543.043,233.892 532.936,238.759 522.979,243.927 513.181,249.39 503.55,255.144 494.097,261.183 484.828,267.503 475.752,274.096 466.878,280.959 458.213,288.084 449.765,295.464 441.541,303.095 433.55,310.968 425.797,319.076 418.291,327.413 411.037,335.97 404.043,344.741 397.314,353.717 390.857,362.89 384.676,372.253 378.779,381.796 373.17,391.511 367.854,401.389 362.836,411.423 358.121,421.602 353.712,431.917 349.613,442.36 345.829,452.92 342.362,463.589 339.217,474.357 336.394,485.215 333.898,496.151 331.73,507.158 329.892,518.225 328.386,529.341 327.214,540.498 326.375,551.685 325.872,562.892 325.704,574.108 325.872,585.325 326.375,596.532 327.214,607.719 328.386,618.876 329.892,629.992 331.73,641.059 333.898,652.065 336.394,663.002 339.217,673.86 342.362,684.628 345.829,695.297 349.613,705.857 353.712,716.3 358.121,726.615 362.836,736.794 367.854,746.827 373.17,756.706 378.779,766.421 384.676,775.964 390.857,785.327 397.314,794.5 404.043,803.476 411.037,812.247 418.291,820.804 425.797,829.141 433.55,837.249 441.541,845.122 449.765,852.752 458.213,860.133 466.878,867.258 475.752,874.12 484.828,880.714 494.097,887.034 503.55,893.073 513.181,898.827 522.979,904.29 532.936,909.457 543.043,914.325 553.291,918.888 563.671,923.142 574.174,927.084 584.79,930.709 595.51,934.016 606.324,937 617.222,939.66 628.195,941.992 639.233,943.995 650.326,945.667 661.464,947.007 672.636,948.012 683.835,948.683 695.048,949.019 706.266,949.019 717.479,948.683 728.677,948.012 739.85,947.007 750.988,945.667 762.081,943.995 773.118,941.992 784.091,939.66 794.99,937 805.804,934.016 816.523,930.709 827.139,927.084 837.642,923.142 848.022,918.888 858.271,914.325 868.378,909.457 878.335,904.29 888.133,898.827 897.763,893.073 907.217,887.034 916.486,880.714 925.561,874.12 934.436,867.258 943.101,860.133 951.549,852.752 959.772,845.122 967.764,837.249 975.516,829.141 983.023,820.804 990.276,812.247 997.271,803.476 1004,794.5 1010.46,785.327 1016.64,775.964 1022.53,766.421 1028.14,756.706 1033.46,746.827 1038.48,736.794 1043.19,726.615 1047.6,716.3 1051.7,705.857 1055.48,695.297 1058.95,684.628 1062.1,673.86 1064.92,663.002 1067.42,652.065 1069.58,641.059 1071.42,629.992 1072.93,618.876 1074.1,607.719 1074.94,596.532 1075.44,585.325 1075.61,574.108 " />
<polyline fill="none" vector-effect="none" points="738.152,574.108 737.987,570.597 737.494,567.117 736.678,563.698 735.545,560.371 734.105,557.164 732.371,554.107 730.359,551.225 728.086,548.544 725.571,546.088 722.838,543.878 719.91,541.934 716.812,540.272 713.573,538.908 710.22,537.853 706.783,537.117 703.292,536.706 699.778,536.623 696.271,536.87 692.804,537.445 689.405,538.341 686.105,539.552 682.933,541.066 679.917,542.871 677.083,544.951 674.456,547.286 672.06,549.858 669.914,552.642 668.039,555.615 666.451,558.751 665.163,562.021 664.187,565.398 663.532,568.851 663.203,572.351 663.203,575.866 663.532,579.365 664.187,582.819 665.163,586.196 666.451,589.466 668.039,592.602 669.914,595.575 672.06,598.359 674.456,600.931 677.083,603.266 679.917,605.345 682.933,607.15 686.105,608.665 689.405,609.876 692.804,610.772 696.271,611.346 699.778,611.593 703.292,611.511 706.783,611.1 710.22,610.364 713.573,609.309 716.812,607.945 719.91,606.283 722.838,604.339 725.571,602.129 728.086,599.673 730.359,596.992 732.371,594.11 734.105,591.053 735.545,587.846 736.678,584.519 737.494,581.1 737.987,577.62 738.152,574.108 " />
<polyline fill="none" vector-effect="none" points="700.657,274.147 700.657,424.127 " />
<polyline fill="none" vector-effect="none" points="486.569,2173.4 486.403,2170.81 485.907,2168.26 485.089,2165.8 483.963,2163.46 482.548,2161.29 480.866,2159.31 478.946,2157.57 476.818,2156.08 474.517,2154.88 472.082,2153.99 469.553,2153.41 466.97,2153.16 464.377,2153.25 461.816,2153.66 459.329,2154.4 456.956,2155.45 454.738,2156.79 452.709,2158.41 450.904,2160.27 449.352,2162.35 448.079,2164.61 447.106,2167.02 446.447,2169.53 446.116,2172.1 446.116,2174.7 446.447,2177.27 447.106,2179.78 448.079,2182.18 449.352,2184.45 450.904,2186.52 452.709,2188.39 454.738,2190.01 456.956,2191.35 459.329,2192.4 461.816,2193.14 464.377,2193.55 466.97,2193.64 469.553,2193.39 472.082,2192.81 474.517,2191.91 476.818,2190.71 478.946,2189.23 480.866,2187.49 482.548,2185.51 483.963,2183.34 485.089,2181 485.907,2178.54 486.403,2175.99 486.569,2173.4 " />
<polyline fill="none" vector-effect="none" points="878.769,1648.47 878.601,1642.32 878.098,1636.2 877.261,1630.11 876.094,1624.08 874.598,1618.12 872.779,1612.25 870.642,1606.49 868.194,1600.85 865.442,1595.36 862.393,1590.02 859.058,1584.86 855.446,1579.89 851.568,1575.12 847.436,1570.57 843.061,1566.26 838.457,1562.19 833.638,1558.37 828.617,1554.83 823.411,1551.57 818.034,1548.59 812.503,1545.91 806.834,1543.54 801.043,1541.49 795.149,1539.75 789.169,1538.33 783.121,1537.25 777.022,1536.49 770.891,1536.07 764.747,1535.99 758.607,1536.24 752.49,1536.83 746.414,1537.75 740.398,1539 734.459,1540.58 728.614,1542.48 722.882,1544.69 717.28,1547.22 711.824,1550.04 706.53,1553.16 701.415,1556.57 696.493,1560.25 691.78,1564.19 687.289,1568.39 683.034,1572.82 679.027,1577.48 675.281,1582.35 671.806,1587.42 668.613,1592.67 665.711,1598.08 663.11,1603.65 660.817,1609.35 658.838,1615.17 657.18,1621.09 655.848,1627.09 654.845,1633.15 654.175,1639.26 653.84,1645.39 653.84,1651.54 654.175,1657.67 654.845,1663.78 655.848,1669.85 657.18,1675.84 658.838,1681.76 660.817,1687.58 663.11,1693.28 665.711,1698.85 668.613,1704.26 671.806,1709.52 675.281,1714.58 679.027,1719.45 683.034,1724.11 687.289,1728.55 691.78,1732.74 696.493,1736.68 701.415,1740.36 706.53,1743.77 711.824,1746.89 717.28,1749.72 722.882,1752.24 728.614,1754.46 734.459,1756.36 740.398,1757.93 746.414,1759.18 752.49,1760.1 758.607,1760.69 764.747,1760.94 770.891,1760.86 777.022,1760.44 783.121,1759.68 789.169,1758.6 795.149,1757.18 801.043,1755.45 806.834,1753.39 812.503,1751.02 818.034,1748.34 823.411,1745.37 828.617,1742.1 833.638,1738.56 838.457,1734.74 843.061,1730.67 847.436,1726.36 851.568,1721.81 855.446,1717.04 859.058,1712.07 862.393,1706.91 865.442,1701.58 868.194,1696.08 870.642,1690.45 872.779,1684.68 874.598,1678.81 876.094,1672.85 877.261,1666.82 878.098,1660.73 878.601,1654.61 878.769,1648.47 " />
<polyline fill="none" vector-effect="none" points="1371.55,1048.54 1371.55,2248.39 " />
<polyline fill="none" vector-effect="none" points="166.36,2248.39 1371.55,2248.39 " />
<polyline fill="none" vector-effect="none" points="786.531,1123.53 786.365,1120.94 785.869,1118.4 785.051,1115.93 783.925,1113.6 782.51,1111.42 780.828,1109.45 778.907,1107.7 776.78,1106.22 774.479,1105.02 772.044,1104.12 769.515,1103.54 766.932,1103.3 764.339,1103.38 761.778,1103.79 759.291,1104.53 756.918,1105.58 754.7,1106.93 752.671,1108.54 750.866,1110.41 749.314,1112.49 748.041,1114.75 747.067,1117.15 746.409,1119.66 746.078,1122.24 746.078,1124.83 746.409,1127.4 747.067,1129.91 748.041,1132.32 749.314,1134.58 750.866,1136.66 752.671,1138.52 754.7,1140.14 756.918,1141.48 759.291,1142.53 761.778,1143.27 764.339,1143.69 766.932,1143.77 769.515,1143.52 772.044,1142.94 774.479,1142.05 776.78,1140.85 778.907,1139.36 780.828,1137.62 782.51,1135.64 783.925,1133.47 785.051,1131.13 785.869,1128.67 786.365,1126.12 786.531,1123.53 " />
<polyline fill="none" vector-effect="none" points="166.36,1048.54 166.36,2248.39 " />
<polyline fill="none" vector-effect="none" points="1091.83,2173.4 1091.67,2170.81 1091.17,2168.26 1090.35,2165.8 1089.23,2163.46 1087.81,2161.29 1086.13,2159.31 1084.21,2157.57 1082.08,2156.08 1079.78,2154.88 1077.35,2153.99 1074.82,2153.41 1072.23,2153.16 1069.64,2153.25 1067.08,2153.66 1064.59,2154.4 1062.22,2155.45 1060,2156.79 1057.97,2158.41 1056.17,2160.27 1054.62,2162.35 1053.34,2164.61 1052.37,2167.02 1051.71,2169.53 1051.38,2172.1 1051.38,2174.7 1051.71,2177.27 1052.37,2179.78 1053.34,2182.18 1054.62,2184.45 1056.17,2186.52 1057.97,2188.39 1060,2190.01 1062.22,2191.35 1064.59,2192.4 1067.08,2193.14 1069.64,2193.55 1072.23,2193.64 1074.82,2193.39 1077.35,2192.81 1079.78,2191.91 1082.08,2190.71 1084.21,2189.23 1086.13,2187.49 1087.81,2185.51 1089.23,2183.34 1090.35,2181 1091.17,2178.54 1091.67,2175.99 1091.83,2173.4 " />
<polyline fill="none" vector-effect="none" points="166.36,1048.54 1371.55,1048.54 " />
</g>

<g fill="none" stroke="#000000" stroke-opacity="1" stroke-width="1" stroke-linecap="square" stroke-linejoin="bevel" transform="matrix(1,0,0,1,0,0)"
font-family="Arial" font-size="12" font-weight="400" font-style="normal" 
>
</g>
</g>
</svg>
