<?xml version="1.0" encoding="UTF-8" standalone="no"?>
<svg width="297.011mm" height="209.973mm"
 viewBox="0 0 3508 2480"
 xmlns="http://www.w3.org/2000/svg" xmlns:xlink="http://www.w3.org/1999/xlink"  version="1.2" baseProfile="tiny">
<defs>
</defs>
<g fill="none" stroke="black" stroke-width="1" fill-rule="evenodd" stroke-linecap="square" stroke-linejoin="bevel" >

<g fill="#ffffff" fill-opacity="1" stroke="none" transform="matrix(1,0,0,1,0,0)"
font-family="Arial" font-size="12" font-weight="400" font-style="normal" 
>
<rect x="0" y="0" width="3508" height="2480"/>
</g>

<g fill="none" stroke="#000000" stroke-opacity="1" stroke-width="1" stroke-linecap="square" stroke-linejoin="bevel" transform="matrix(1,0,0,1,0,0)"
font-family="Arial" font-size="12" font-weight="400" font-style="normal" 
>
</g>

<g fill="#000000" fill-opacity="1" stroke="#000000" stroke-opacity="1" stroke-width="1" stroke-linecap="butt" stroke-linejoin="miter" stroke-miterlimit="2" transform="matrix(1,0,0,1,0,0)"
font-family="Arial" font-size="12" font-weight="400" font-style="normal" 
>
</g>

<g fill="#000000" fill-opacity="1" stroke="#000000" stroke-opacity="1" stroke-width="5" stroke-linecap="round" stroke-linejoin="bevel" transform="matrix(1,0,0,1,0,0)"
font-family="Arial" font-size="12" font-weight="400" font-style="normal" 
>
<polyline fill="none" vector-effect="none" points="472.008,2313.32 471.842,2310.73 471.346,2308.19 470.529,2305.72 469.403,2303.39 467.988,2301.21 466.306,2299.24 464.385,2297.49 462.257,2296.01 459.957,2294.81 457.522,2293.91 454.993,2293.33 452.41,2293.08 449.817,2293.17 447.256,2293.58 444.768,2294.32 442.396,2295.37 440.177,2296.71 438.149,2298.33 436.344,2300.2 434.792,2302.28 433.519,2304.54 432.545,2306.94 431.887,2309.45 431.555,2312.02 431.555,2314.62 431.887,2317.19 432.545,2319.7 433.519,2322.11 434.792,2324.37 436.344,2326.45 438.149,2328.31 440.177,2329.93 442.396,2331.27 444.768,2332.32 447.256,2333.06 449.817,2333.47 452.41,2333.56 454.993,2333.31 457.522,2332.73 459.957,2331.84 462.257,2330.64 464.385,2329.15 466.306,2327.41 467.988,2325.43 469.403,2323.26 470.529,2320.92 471.346,2318.46 471.842,2315.91 472.008,2313.32 " />
<polyline fill="none" vector-effect="none" points="771.97,1263.45 771.804,1260.87 771.308,1258.32 770.491,1255.86 769.365,1253.52 767.95,1251.34 766.268,1249.37 764.347,1247.62 762.219,1246.14 759.919,1244.94 757.484,1244.04 754.954,1243.47 752.372,1243.22 749.779,1243.3 747.217,1243.71 744.73,1244.45 742.358,1245.5 740.139,1246.85 738.111,1248.47 736.306,1250.33 734.754,1252.41 733.481,1254.67 732.507,1257.07 731.849,1259.58 731.517,1262.16 731.517,1264.75 731.849,1267.32 732.507,1269.83 733.481,1272.24 734.754,1274.5 736.306,1276.58 738.111,1278.44 740.139,1280.06 742.358,1281.41 744.73,1282.46 747.217,1283.19 749.779,1283.61 752.372,1283.69 754.954,1283.44 757.484,1282.86 759.919,1281.97 762.219,1280.77 764.347,1279.28 766.268,1277.54 767.95,1275.56 769.365,1273.39 770.491,1271.05 771.308,1268.59 771.804,1266.04 771.97,1263.45 " />
<polyline fill="none" vector-effect="none" points="151.799,1188.46 1356.99,1188.46 " />
<polyline fill="none" vector-effect="none" points="1356.99,1188.46 1356.99,2388.31 " />
<polyline fill="none" vector-effect="none" points="151.799,1188.46 151.799,2388.31 " />
<polyline fill="none" vector-effect="none" points="1009.17,1788.39 1009,1785.1 1008.51,1781.85 1007.68,1778.67 1006.54,1775.58 1005.09,1772.63 1003.35,1769.84 1001.34,1767.23 999.069,1764.85 996.573,1762.71 993.873,1760.83 990.997,1759.23 987.974,1757.93 984.835,1756.95 981.612,1756.29 978.339,1755.95 975.05,1755.95 971.777,1756.29 968.554,1756.95 965.415,1757.93 962.392,1759.23 959.516,1760.83 956.816,1762.71 954.319,1764.85 952.053,1767.23 950.039,1769.84 948.299,1772.63 946.85,1775.58 945.708,1778.67 944.883,1781.85 944.385,1785.1 944.218,1788.39 944.385,1791.67 944.883,1794.93 945.708,1798.11 946.85,1801.19 948.299,1804.15 950.039,1806.94 952.053,1809.54 954.319,1811.93 956.816,1814.07 959.516,1815.95 962.392,1817.54 965.415,1818.84 968.554,1819.83 971.777,1820.49 975.05,1820.82 978.339,1820.82 981.612,1820.49 984.835,1819.83 987.974,1818.84 990.997,1817.54 993.873,1815.95 996.573,1814.07 999.069,1811.93 1001.34,1809.54 1003.35,1806.94 1005.09,1804.15 1006.54,1801.19 1007.68,1798.11 1008.51,1794.93 1009,1791.67 1009.17,1788.39 " />
<polyline fill="none" vector-effect="none" points="864.209,1788.39 864.041,1782.24 863.538,1776.12 862.701,1770.03 861.533,1764 860.037,1758.04 858.218,1752.17 856.082,1746.41 853.634,1740.77 850.881,1735.28 847.833,1729.94 844.498,1724.78 840.886,1719.81 837.008,1715.04 832.875,1710.49 828.5,1706.18 823.897,1702.11 819.077,1698.3 814.057,1694.75 808.851,1691.49 803.474,1688.51 797.942,1685.84 792.273,1683.47 786.483,1681.41 780.589,1679.67 774.609,1678.25 768.56,1677.17 762.462,1676.42 756.331,1676 750.187,1675.91 744.047,1676.16 737.93,1676.75 731.854,1677.67 725.837,1678.92 719.898,1680.5 714.054,1682.4 708.322,1684.61 702.72,1687.14 697.263,1689.96 691.97,1693.08 686.855,1696.49 681.933,1700.17 677.22,1704.11 672.729,1708.31 668.473,1712.74 664.467,1717.4 660.72,1722.27 657.245,1727.34 654.052,1732.59 651.151,1738.01 648.55,1743.57 646.256,1749.27 644.278,1755.09 642.62,1761.01 641.288,1767.01 640.285,1773.07 639.615,1779.18 639.279,1785.32 639.279,1791.46 639.615,1797.6 640.285,1803.7 641.288,1809.77 642.62,1815.77 644.278,1821.68 646.256,1827.5 648.55,1833.2 651.151,1838.77 654.052,1844.19 657.245,1849.44 660.72,1854.51 664.467,1859.38 668.473,1864.04 672.729,1868.47 677.22,1872.66 681.933,1876.61 686.855,1880.29 691.97,1883.69 697.263,1886.81 702.72,1889.64 708.322,1892.16 714.054,1894.38 719.898,1896.28 725.837,1897.85 731.854,1899.1 737.93,1900.02 744.047,1900.61 750.187,1900.86 756.331,1900.78 762.462,1900.36 768.56,1899.61 774.609,1898.52 780.589,1897.11 786.483,1895.37 792.273,1893.31 797.942,1890.94 803.474,1888.26 808.851,1885.29 814.057,1882.02 819.077,1878.48 823.897,1874.67 828.5,1870.6 832.875,1866.28 837.008,1861.73 840.886,1856.97 844.498,1851.99 847.833,1846.83 850.881,1841.5 853.634,1836 856.082,1830.37 858.218,1824.61 860.037,1818.74 861.533,1812.78 862.701,1806.74 863.538,1800.65 864.041,1794.53 864.209,1788.39 " />
<polyline fill="none" vector-effect="none" points="1077.27,2313.32 1077.11,2310.73 1076.61,2308.19 1075.79,2305.72 1074.67,2303.39 1073.25,2301.21 1071.57,2299.24 1069.65,2297.49 1067.52,2296.01 1065.22,2294.81 1062.79,2293.91 1060.26,2293.33 1057.67,2293.08 1055.08,2293.17 1052.52,2293.58 1050.03,2294.32 1047.66,2295.37 1045.44,2296.71 1043.41,2298.33 1041.61,2300.2 1040.06,2302.28 1038.78,2304.54 1037.81,2306.94 1037.15,2309.45 1036.82,2312.02 1036.82,2314.62 1037.15,2317.19 1037.81,2319.7 1038.78,2322.11 1040.06,2324.37 1041.61,2326.45 1043.41,2328.31 1045.44,2329.93 1047.66,2331.27 1050.03,2332.32 1052.52,2333.06 1055.08,2333.47 1057.67,2333.56 1060.26,2333.31 1062.79,2332.73 1065.22,2331.84 1067.52,2330.64 1069.65,2329.15 1071.57,2327.41 1073.25,2325.43 1074.67,2323.26 1075.79,2320.92 1076.61,2318.46 1077.11,2315.91 1077.27,2313.32 " />
<polyline fill="none" vector-effect="none" points="151.799,2388.31 1356.99,2388.31 " />
<polyline fill="none" vector-effect="none" points="1066.61,1022.52 1066.45,1019.93 1065.95,1017.38 1065.13,1014.92 1064.01,1012.58 1062.59,1010.4 1060.91,1008.43 1058.99,1006.68 1056.86,1005.2 1054.56,1004 1052.13,1003.1 1049.6,1002.53 1047.02,1002.28 1044.42,1002.36 1041.86,1002.78 1039.37,1003.51 1037,1004.56 1034.78,1005.91 1032.75,1007.53 1030.95,1009.39 1029.4,1011.47 1028.13,1013.73 1027.15,1016.13 1026.49,1018.64 1026.16,1021.22 1026.16,1023.81 1026.49,1026.39 1027.15,1028.9 1028.13,1031.3 1029.4,1033.56 1030.95,1035.64 1032.75,1037.5 1034.78,1039.12 1037,1040.47 1039.37,1041.52 1041.86,1042.25 1044.42,1042.67 1047.02,1042.75 1049.6,1042.5 1052.13,1041.93 1054.56,1041.03 1056.86,1039.83 1058.99,1038.35 1060.91,1036.6 1062.59,1034.63 1064.01,1032.45 1065.13,1030.11 1065.95,1027.65 1066.45,1025.1 1066.61,1022.52 " />
<polyline fill="none" vector-effect="none" points="1346.33,-1 1346.33,1097.51 " />
<polyline fill="none" vector-effect="none" points="141.142,-1 141.142,1097.51 " />
<polyline fill="none" vector-effect="none" points="461.351,1022.52 461.185,1019.93 460.689,1017.38 459.871,1014.92 458.746,1012.58 457.33,1010.4 455.648,1008.43 453.728,1006.68 451.6,1005.2 449.3,1004 446.865,1003.1 444.335,1002.53 441.753,1002.28 439.16,1002.36 436.598,1002.78 434.111,1003.51 431.739,1004.56 429.52,1005.91 427.491,1007.53 425.686,1009.39 424.135,1011.47 422.861,1013.73 421.888,1016.13 421.23,1018.64 420.898,1021.22 420.898,1023.81 421.23,1026.39 421.888,1028.9 422.861,1031.3 424.135,1033.56 425.686,1035.64 427.491,1037.5 429.52,1039.12 431.739,1040.47 434.111,1041.52 436.598,1042.25 439.16,1042.67 441.753,1042.75 444.335,1042.5 446.865,1041.93 449.3,1041.03 451.6,1039.83 453.728,1038.35 455.648,1036.6 457.33,1034.63 458.746,1032.45 459.871,1030.11 460.689,1027.65 461.185,1025.1 461.351,1022.52 " />
<polyline fill="none" vector-effect="none" points="1153.51,497.582 1153.35,485.804 1152.84,474.036 1152,462.287 1150.82,450.566 1149.32,438.884 1147.47,427.25 1145.3,415.674 1142.79,404.164 1139.96,392.73 1136.81,381.382 1133.33,370.128 1129.53,358.979 1125.41,347.943 1120.98,337.028 1116.24,326.245 1111.2,315.601 1105.85,305.106 1100.2,294.768 1094.26,284.595 1088.04,274.596 1081.53,264.778 1074.74,255.151 1067.68,245.721 1060.36,236.497 1052.77,227.486 1044.93,218.695 1036.84,210.132 1028.52,201.802 1019.95,193.715 1011.16,185.875 1002.15,178.289 992.926,170.964 983.496,163.905 973.869,157.118 964.052,150.609 954.053,144.383 943.88,138.445 933.541,132.799 923.046,127.452 912.403,122.406 901.619,117.666 890.705,113.237 879.668,109.12 868.519,105.321 857.266,101.841 845.917,98.6843 834.484,95.8528 822.974,93.349 811.397,91.1749 799.763,89.3322 788.081,87.8226 776.361,86.6471 764.612,85.8068 752.844,85.3023 741.066,85.1341 729.288,85.3023 717.52,85.8068 705.77,86.6471 694.05,87.8226 682.368,89.3322 670.734,91.1749 659.157,93.349 647.648,95.8528 636.214,98.6843 624.866,101.841 613.612,105.321 602.463,109.12 591.426,113.237 580.512,117.666 569.729,122.406 559.085,127.452 548.59,132.799 538.252,138.445 528.079,144.383 518.08,150.609 508.262,157.118 498.635,163.905 489.205,170.964 479.981,178.289 470.97,185.875 462.179,193.715 453.615,201.802 445.286,210.132 437.199,218.695 429.359,227.486 421.773,236.497 414.447,245.721 407.389,255.151 400.602,264.778 394.093,274.596 387.867,284.595 381.929,294.768 376.283,305.106 370.936,315.601 365.89,326.245 361.15,337.028 356.721,347.943 352.604,358.979 348.805,370.128 345.325,381.382 342.168,392.73 339.337,404.164 336.833,415.674 334.659,427.25 332.816,438.884 331.306,450.566 330.131,462.287 329.291,474.036 328.786,485.804 328.618,497.582 328.786,509.36 329.291,521.128 330.131,532.877 331.306,544.597 332.816,556.279 334.659,567.913 336.833,579.49 339.337,591 342.168,602.433 345.325,613.782 348.805,625.035 352.604,636.185 356.721,647.221 361.15,658.135 365.89,668.919 370.936,679.562 376.283,690.058 381.929,700.396 387.867,710.569 394.093,720.568 400.602,730.385 407.389,740.012 414.447,749.442 421.773,758.666 429.359,767.677 437.199,776.468 445.286,785.032 453.615,793.361 462.179,801.449 470.97,809.289 479.981,816.875 489.205,824.2 498.635,831.259 508.262,838.046 518.08,844.555 528.079,850.781 538.252,856.719 548.59,862.364 559.085,867.712 569.729,872.757 580.512,877.497 591.426,881.927 602.463,886.043 613.612,889.843 624.866,893.322 636.214,896.479 647.648,899.311 659.157,901.814 670.734,903.989 682.368,905.831 694.05,907.341 705.77,908.516 717.52,909.357 729.288,909.861 741.066,910.029 752.844,909.861 764.612,909.357 776.361,908.516 788.081,907.341 799.763,905.831 811.397,903.989 822.974,901.814 834.484,899.311 845.917,896.479 857.266,893.322 868.519,889.843 879.668,886.043 890.705,881.927 901.619,877.497 912.403,872.757 923.046,867.712 933.541,862.364 943.88,856.719 954.053,850.781 964.052,844.555 973.869,838.046 983.496,831.259 992.926,824.2 1002.15,816.875 1011.16,809.289 1019.95,801.449 1028.52,793.361 1036.84,785.032 1044.93,776.468 1052.77,767.677 1060.36,758.666 1067.68,749.442 1074.74,740.012 1081.53,730.385 1088.04,720.568 1094.26,710.569 1100.2,700.396 1105.85,690.058 1111.2,679.562 1116.24,668.919 1120.98,658.135 1125.41,647.221 1129.53,636.185 1133.33,625.035 1136.81,613.782 1139.96,602.433 1142.79,591 1145.3,579.49 1147.47,567.913 1149.32,556.279 1150.82,544.597 1152,532.877 1152.84,521.128 1153.35,509.36 1153.51,497.582 " />
<polyline fill="none" vector-effect="none" points="141.142,1097.51 1346.33,1097.51 " />
<polyline fill="none" vector-effect="none" points="1483.64,1107.21 2688.83,1107.21 " />
<polyline fill="none" vector-effect="none" points="2196.05,507.281 2195.88,501.139 2195.38,495.014 2194.54,488.926 2193.37,482.893 2191.88,476.933 2190.06,471.063 2187.92,465.302 2185.47,459.665 2182.72,454.171 2179.67,448.836 2176.34,443.674 2172.73,438.703 2168.85,433.936 2164.71,429.388 2160.34,425.073 2155.74,421.003 2150.92,417.19 2145.9,413.646 2140.69,410.382 2135.31,407.407 2129.78,404.73 2124.11,402.359 2118.32,400.301 2112.43,398.563 2106.45,397.148 2100.4,396.063 2094.3,395.309 2088.17,394.89 2082.03,394.806 2075.89,395.058 2069.77,395.645 2063.69,396.564 2057.68,397.815 2051.74,399.392 2045.89,401.29 2040.16,403.506 2034.56,406.031 2029.1,408.858 2023.81,411.979 2018.69,415.384 2013.77,419.063 2009.06,423.006 2004.57,427.201 2000.31,431.634 1996.31,436.293 1992.56,441.164 1989.08,446.232 1985.89,451.483 1982.99,456.9 1980.39,462.467 1978.1,468.168 1976.12,473.986 1974.46,479.903 1973.13,485.902 1972.12,491.965 1971.45,498.073 1971.12,504.209 1971.12,510.354 1971.45,516.49 1972.12,522.598 1973.13,528.661 1974.46,534.66 1976.12,540.577 1978.1,546.395 1980.39,552.096 1982.99,557.663 1985.89,563.08 1989.08,568.331 1992.56,573.399 1996.31,578.27 2000.31,582.929 2004.57,587.362 2009.06,591.556 2013.77,595.499 2018.69,599.179 2023.81,602.584 2029.1,605.705 2034.56,608.532 2040.16,611.057 2045.89,613.272 2051.74,615.171 2057.68,616.748 2063.69,617.998 2069.77,618.918 2075.89,619.505 2082.03,619.757 2088.17,619.673 2094.3,619.253 2100.4,618.5 2106.45,617.414 2112.43,616 2118.32,614.262 2124.11,612.204 2129.78,609.833 2135.31,607.156 2140.69,604.181 2145.9,600.916 2150.92,597.373 2155.74,593.56 2160.34,589.49 2164.71,585.175 2168.85,580.627 2172.73,575.86 2176.34,570.888 2179.67,565.727 2182.72,560.391 2185.47,554.897 2187.92,549.261 2190.06,543.499 2191.88,537.63 2193.37,531.669 2194.54,525.636 2195.38,519.549 2195.88,513.424 2196.05,507.281 " />
<polyline fill="none" vector-effect="none" points="2270.44,460.455 2270.44,552.768 " />
<polyline fill="none" vector-effect="none" points="1803.85,1032.21 1803.68,1029.63 1803.19,1027.08 1802.37,1024.62 1801.24,1022.28 1799.83,1020.1 1798.14,1018.13 1796.22,1016.38 1794.1,1014.9 1791.8,1013.7 1789.36,1012.8 1786.83,1012.23 1784.25,1011.98 1781.66,1012.06 1779.09,1012.47 1776.61,1013.21 1774.23,1014.26 1772.02,1015.61 1769.99,1017.23 1768.18,1019.09 1766.63,1021.17 1765.36,1023.43 1764.38,1025.83 1763.73,1028.34 1763.39,1030.92 1763.39,1033.51 1763.73,1036.09 1764.38,1038.59 1765.36,1041 1766.63,1043.26 1768.18,1045.34 1769.99,1047.2 1772.02,1048.82 1774.23,1050.17 1776.61,1051.22 1779.09,1051.95 1781.66,1052.37 1784.25,1052.45 1786.83,1052.2 1789.36,1051.63 1791.8,1050.73 1794.1,1049.53 1796.22,1048.04 1798.14,1046.3 1799.83,1044.32 1801.24,1042.15 1802.37,1039.81 1803.19,1037.35 1803.68,1034.8 1803.85,1032.21 " />
<polyline fill="none" vector-effect="none" points="2270.44,460.455 2350,460.455 " />
<polyline fill="none" vector-effect="none" points="2688.83,-1 2688.83,1107.21 " />
<polyline fill="none" vector-effect="none" points="1483.64,-1 1483.64,1107.21 " />
<polyline fill="none" vector-effect="none" points="2409.11,1032.21 2408.94,1029.63 2408.45,1027.08 2407.63,1024.62 2406.51,1022.28 2405.09,1020.1 2403.41,1018.13 2401.49,1016.38 2399.36,1014.9 2397.06,1013.7 2394.62,1012.8 2392.1,1012.23 2389.51,1011.98 2386.92,1012.06 2384.36,1012.47 2381.87,1013.21 2379.5,1014.26 2377.28,1015.61 2375.25,1017.23 2373.45,1019.09 2371.89,1021.17 2370.62,1023.43 2369.65,1025.83 2368.99,1028.34 2368.66,1030.92 2368.66,1033.51 2368.99,1036.09 2369.65,1038.59 2370.62,1041 2371.89,1043.26 2373.45,1045.34 2375.25,1047.2 2377.28,1048.82 2379.5,1050.17 2381.87,1051.22 2384.36,1051.95 2386.92,1052.37 2389.51,1052.45 2392.1,1052.2 2394.62,1051.63 2397.06,1050.73 2399.36,1049.53 2401.49,1048.04 2403.41,1046.3 2405.09,1044.32 2406.51,1042.15 2407.63,1039.81 2408.45,1037.35 2408.94,1034.8 2409.11,1032.21 " />
<polyline fill="none" vector-effect="none" points="2072.46,-1 2073.44,-0.117192 2081.45,2.48453 2089.82,1.60447 2094.33,-1 " />
<polyline fill="none" vector-effect="none" points="2270.44,552.768 2350,552.768 " />
<polyline fill="none" vector-effect="none" points="2350,460.455 2350,552.768 " />
<polyline fill="none" vector-effect="none" points="1483.64,1190.67 2688.83,1190.67 " />
<polyline fill="none" vector-effect="none" points="2289.11,1862.17 2289.11,2130.15 " />
<polyline fill="none" vector-effect="none" points="2409.11,2315.53 2408.94,2312.94 2408.45,2310.39 2407.63,2307.93 2406.51,2305.59 2405.09,2303.42 2403.41,2301.44 2401.49,2299.7 2399.36,2298.21 2397.06,2297.01 2394.62,2296.12 2392.1,2295.54 2389.51,2295.29 2386.92,2295.37 2384.36,2295.79 2381.87,2296.53 2379.5,2297.58 2377.28,2298.92 2375.25,2300.54 2373.45,2302.4 2371.89,2304.48 2370.62,2306.74 2369.65,2309.15 2368.99,2311.66 2368.66,2314.23 2368.66,2316.82 2368.99,2319.4 2369.65,2321.91 2370.62,2324.31 2371.89,2326.57 2373.45,2328.65 2375.25,2330.52 2377.28,2332.13 2379.5,2333.48 2381.87,2334.53 2384.36,2335.27 2386.92,2335.68 2389.51,2335.76 2392.1,2335.51 2394.62,2334.94 2397.06,2334.04 2399.36,2332.84 2401.49,2331.36 2403.41,2329.61 2405.09,2327.64 2406.51,2325.46 2407.63,2323.13 2408.45,2320.66 2408.94,2318.12 2409.11,2315.53 " />
<polyline fill="none" vector-effect="none" points="1483.64,1190.67 1483.64,2390.52 " />
<polyline fill="none" vector-effect="none" points="2289.11,2130.15 2334.51,2130.15 " />
<polyline fill="none" vector-effect="none" points="1483.64,2390.52 2688.83,2390.52 " />
<polyline fill="none" vector-effect="none" points="2103.81,1265.66 2103.64,1263.07 2103.15,1260.52 2102.33,1258.06 2101.2,1255.72 2099.79,1253.55 2098.11,1251.57 2096.19,1249.83 2094.06,1248.35 2091.76,1247.15 2089.32,1246.25 2086.79,1245.67 2084.21,1245.42 2081.62,1245.51 2079.06,1245.92 2076.57,1246.66 2074.2,1247.71 2071.98,1249.05 2069.95,1250.67 2068.14,1252.54 2066.59,1254.61 2065.32,1256.88 2064.35,1259.28 2063.69,1261.79 2063.36,1264.36 2063.36,1266.96 2063.69,1269.53 2064.35,1272.04 2065.32,1274.45 2066.59,1276.71 2068.14,1278.79 2069.95,1280.65 2071.98,1282.27 2074.2,1283.61 2076.57,1284.66 2079.06,1285.4 2081.62,1285.81 2084.21,1285.9 2086.79,1285.65 2089.32,1285.07 2091.76,1284.17 2094.06,1282.97 2096.19,1281.49 2098.11,1279.75 2099.79,1277.77 2101.2,1275.6 2102.33,1273.26 2103.15,1270.8 2103.64,1268.25 2103.81,1265.66 " />
<polyline fill="none" vector-effect="none" points="2334.51,1862.17 2371.43,1862.17 " />
<polyline fill="none" vector-effect="none" points="2371.43,1718.19 2371.43,1862.17 " />
<polyline fill="none" vector-effect="none" points="2688.83,1190.67 2688.83,2065.42 " />
<polyline fill="none" vector-effect="none" points="2334.51,1862.17 2334.51,2065.42 " />
<polyline fill="none" vector-effect="none" points="2247.6,1718.19 2371.43,1718.19 " />
<polyline fill="none" vector-effect="none" points="1803.85,2315.53 1803.68,2312.94 1803.19,2310.39 1802.37,2307.93 1801.24,2305.59 1799.83,2303.42 1798.14,2301.44 1796.22,2299.7 1794.1,2298.21 1791.8,2297.01 1789.36,2296.12 1786.83,2295.54 1784.25,2295.29 1781.66,2295.37 1779.09,2295.79 1776.61,2296.53 1774.23,2297.58 1772.02,2298.92 1769.99,2300.54 1768.18,2302.4 1766.63,2304.48 1765.36,2306.74 1764.38,2309.15 1763.73,2311.66 1763.39,2314.23 1763.39,2316.82 1763.73,2319.4 1764.38,2321.91 1765.36,2324.31 1766.63,2326.57 1768.18,2328.65 1769.99,2330.52 1772.02,2332.13 1774.23,2333.48 1776.61,2334.53 1779.09,2335.27 1781.66,2335.68 1784.25,2335.76 1786.83,2335.51 1789.36,2334.94 1791.8,2334.04 1794.1,2332.84 1796.22,2331.36 1798.14,2329.61 1799.83,2327.64 1801.24,2325.46 1802.37,2323.13 1803.19,2320.66 1803.68,2318.12 1803.85,2315.53 " />
<polyline fill="none" vector-effect="none" points="2688.83,2130.15 2688.83,2390.52 " />
<polyline fill="none" vector-effect="none" points="2334.51,2065.42 2688.83,2065.42 " />
<polyline fill="none" vector-effect="none" points="2247.6,1862.17 2289.11,1862.17 " />
<polyline fill="none" vector-effect="none" points="2158.55,1790.59 2158.39,1785.58 2157.88,1780.6 2157.05,1775.66 2155.89,1770.78 2154.4,1765.99 2152.6,1761.32 2150.49,1756.77 2148.08,1752.38 2145.39,1748.15 2142.41,1744.12 2139.18,1740.29 2135.69,1736.69 2131.98,1733.33 2128.04,1730.22 2123.91,1727.38 2119.6,1724.83 2115.13,1722.57 2110.51,1720.61 2105.78,1718.97 2100.95,1717.65 2096.04,1716.65 2091.07,1715.98 2086.07,1715.64 2081.06,1715.64 2076.06,1715.98 2071.09,1716.65 2066.18,1717.65 2061.34,1718.97 2056.61,1720.61 2052,1722.57 2047.52,1724.83 2043.21,1727.38 2039.08,1730.22 2035.15,1733.33 2031.43,1736.69 2027.95,1740.29 2024.71,1744.12 2021.74,1748.15 2019.04,1752.38 2016.63,1756.77 2014.52,1761.32 2012.72,1765.99 2011.24,1770.78 2010.07,1775.66 2009.24,1780.6 2008.74,1785.58 2008.57,1790.59 2008.74,1795.6 2009.24,1800.59 2010.07,1805.53 2011.24,1810.41 2012.72,1815.19 2014.52,1819.87 2016.63,1824.42 2019.04,1828.81 2021.74,1833.03 2024.71,1837.07 2027.95,1840.9 2031.43,1844.5 2035.15,1847.86 2039.08,1850.97 2043.21,1853.8 2047.52,1856.36 2052,1858.62 2056.61,1860.57 2061.34,1862.22 2066.18,1863.54 2071.09,1864.54 2076.06,1865.21 2081.06,1865.54 2086.07,1865.54 2091.07,1865.21 2096.04,1864.54 2100.95,1863.54 2105.78,1862.22 2110.51,1860.57 2115.13,1858.62 2119.6,1856.36 2123.91,1853.8 2128.04,1850.97 2131.98,1847.86 2135.69,1844.5 2139.18,1840.9 2142.41,1837.07 2145.39,1833.03 2148.08,1828.81 2150.49,1824.42 2152.6,1819.87 2154.4,1815.19 2155.89,1810.41 2157.05,1805.53 2157.88,1800.59 2158.39,1795.6 2158.55,1790.59 " />
<polyline fill="none" vector-effect="none" points="2334.51,2130.15 2688.83,2130.15 " />
<polyline fill="none" vector-effect="none" points="2247.6,1718.19 2247.6,1862.17 " />
</g>

<g fill="#000000" fill-opacity="1" stroke="#000000" stroke-opacity="1" stroke-width="3" stroke-linecap="round" stroke-linejoin="bevel" transform="matrix(1,0,0,1,0,0)"
font-family="Arial" font-size="12" font-weight="400" font-style="normal" 
>
</g>

<g fill="#000000" fill-opacity="1" stroke="none" transform="matrix(1,0,0,1,0,0)"
font-family="Arial" font-size="12" font-weight="400" font-style="normal" 
>
<path vector-effect="none" fill-rule="evenodd" d="M2080.02,2481 L2075.11,2481 L2075.12,2480.31 L2075.29,2476.91 L2073.6,2478.48 L2070.6,2480.97 L2070.57,2481 L2065.26,2481 L2064.68,2480.26 L2075.83,2471.61 L2080.02,2471.61 L2080.02,2481"/>
</g>

<g fill="#000000" fill-opacity="1" stroke="#000000" stroke-opacity="1" stroke-width="3" stroke-linecap="round" stroke-linejoin="bevel" transform="matrix(1,0,0,1,0,0)"
font-family="Arial" font-size="12" font-weight="400" font-style="normal" 
>
</g>

<g fill="#000000" fill-opacity="1" stroke="none" transform="matrix(1,0,0,1,0,0)"
font-family="Arial" font-size="12" font-weight="400" font-style="normal" 
>
<path vector-effect="none" fill-rule="evenodd" d="M2128.45,2481 L2123.54,2481 L2123.55,2480.31 L2123.72,2476.91 L2122.03,2478.48 L2119.03,2480.97 L2119,2481 L2113.68,2481 L2113.11,2480.26 L2124.26,2471.61 L2128.45,2471.61 L2128.45,2481"/>
</g>

<g fill="#000000" fill-opacity="1" stroke="#000000" stroke-opacity="1" stroke-width="3" stroke-linecap="round" stroke-linejoin="bevel" transform="matrix(1,0,0,1,0,0)"
font-family="Arial" font-size="12" font-weight="400" font-style="normal" 
>
</g>

<g fill="none" stroke="#000000" stroke-opacity="1" stroke-width="1" stroke-linecap="square" stroke-linejoin="bevel" transform="matrix(1,0,0,1,0,0)"
font-family="Arial" font-size="12" font-weight="400" font-style="normal" 
>
</g>
</g>
</svg>
